<svg width="29" height="30" viewBox="0 0 29 30" fill="none" xmlns="http://www.w3.org/2000/svg">
<path d="M14.5 27.6875C21.5071 27.6875 27.1875 22.0071 27.1875 15C27.1875 7.99289 21.5071 2.3125 14.5 2.3125C7.49289 2.3125 1.8125 7.99289 1.8125 15C1.8125 22.0071 7.49289 27.6875 14.5 27.6875Z" fill="url(#paint0_linear_3_243)"/>
<path d="M19.2249 18.8802L19.7885 15.2992H16.2628V12.9763C16.2628 11.9964 16.7545 11.0407 18.3336 11.0407H19.9375V7.99196C19.9375 7.99196 18.4825 7.75 17.0921 7.75C14.1872 7.75 12.2903 9.46548 12.2903 12.5698V15.2992H9.0625V18.8802H12.2903V27.5375C12.9383 27.6367 13.6012 27.6875 14.2765 27.6875C14.9519 27.6875 15.6149 27.6367 16.2628 27.5375V18.8802H19.2249Z" fill="white"/>
<defs>
<linearGradient id="paint0_linear_3_243" x1="14.5" y1="2.3125" x2="14.5" y2="27.6123" gradientUnits="userSpaceOnUse">
<stop stop-color="#18ACFE"/>
<stop offset="1" stop-color="#0163E0"/>
</linearGradient>
</defs>
</svg>
